<svg width="46" height="45" viewBox="0 0 46 45" fill="none" xmlns="http://www.w3.org/2000/svg">
<path d="M23.3047 44C35.1791 44 44.8047 34.3745 44.8047 22.5C44.8047 10.6256 35.1791 1 23.3047 1C11.4302 1 1.80469 10.6256 1.80469 22.5C1.80469 27.688 3.64294 32.4481 6.70239 36.1633L1.80469 44H23.3047Z" stroke="#D6D6D6" stroke-width="2"/>
<path d="M16.7227 18.3202V17.1248C16.7227 16.2778 16.8895 15.439 17.2136 14.6565C17.5378 13.8739 18.0129 13.1629 18.6118 12.564C19.2108 11.965 19.9218 11.4899 20.7043 11.1658C21.4869 10.8416 22.3256 10.6748 23.1727 10.6748C24.0197 10.6748 24.8584 10.8416 25.641 11.1658C26.4235 11.4899 27.1346 11.965 27.7335 12.564C28.3324 13.1629 28.8075 13.8739 29.1317 14.6565C29.4558 15.439 29.6227 16.2778 29.6227 17.1248V18.3202L23.1727 24.0521V27.8748M23.1727 32.1748V35.3998" stroke="#D6D6D6" stroke-width="2"/>
</svg>
