<svg width="50" height="50" viewBox="0 0 50 50" fill="none" xmlns="http://www.w3.org/2000/svg">
<path d="M19.4163 11.8493C19.8783 12.3206 20.1372 12.9543 20.1372 13.6144C20.1372 14.2744 19.8783 14.9082 19.4163 15.3795L15.383 19.4128C14.9117 19.8749 14.278 20.1338 13.6179 20.1338C12.9579 20.1338 12.3242 19.8749 11.8529 19.4128L5.06956 12.632C3.75176 11.3168 1.53679 11.7455 1.21999 13.5798C0.806037 15.9805 0.97801 18.4457 1.72129 20.7657C2.46456 23.0857 3.75715 25.1918 5.48911 26.905C7.22107 28.6182 9.34116 29.8877 11.6691 30.6056C13.997 31.3235 16.4639 31.4686 18.8598 31.0284C21.0429 30.629 23.4043 30.9698 24.9723 32.5352L39.7902 47.3562C40.2833 47.8694 40.8738 48.2792 41.5272 48.5614C42.1806 48.8436 42.8837 48.9926 43.5954 48.9997C44.3071 49.0069 45.013 48.8719 45.6719 48.6029C46.3308 48.3338 46.9295 47.9359 47.4327 47.4327C47.936 46.9294 48.3338 46.3308 48.6029 45.6719C48.8719 45.0129 49.0069 44.307 48.9997 43.5953C48.9926 42.8836 48.8436 42.1804 48.5614 41.527C48.2792 40.8736 47.8695 40.2831 47.3562 39.79L32.5357 24.9717C30.9703 23.4036 30.6295 21.0395 31.0288 18.8591C31.4677 16.4632 31.3218 13.9968 30.6034 11.6695C29.8851 9.34208 28.6156 7.2225 26.9027 5.4908C25.1899 3.7591 23.0844 2.46647 20.765 1.72272C18.4457 0.978975 15.9811 0.806099 13.5807 1.21878C11.7464 1.53825 11.3178 3.75061 12.6329 5.06844L19.4163 11.8493Z" stroke="#D6D6D6" stroke-width="2" stroke-linecap="round" stroke-linejoin="round"/>
</svg>
