<svg width="41" height="41" viewBox="0 0 41 41" fill="none" xmlns="http://www.w3.org/2000/svg">
<path fill-rule="evenodd" clip-rule="evenodd" d="M21.73 19.4811L29.7065 27.4577L27.9681 29.1981L19.27 20.5V8.2H21.73V19.4811ZM20.5 41C9.17785 41 0 31.8221 0 20.5C0 9.17785 9.17785 0 20.5 0C31.8221 0 41 9.17785 41 20.5C41 31.8221 31.8221 41 20.5 41ZM20.5 38.54C25.2845 38.54 29.8731 36.6394 33.2562 33.2562C36.6394 29.8731 38.54 25.2845 38.54 20.5C38.54 15.7155 36.6394 11.1269 33.2562 7.74379C29.8731 4.36064 25.2845 2.46 20.5 2.46C15.7155 2.46 11.1269 4.36064 7.74379 7.74379C4.36064 11.1269 2.46 15.7155 2.46 20.5C2.46 25.2845 4.36064 29.8731 7.74379 33.2562C11.1269 36.6394 15.7155 38.54 20.5 38.54Z" fill="#D6D6D6"/>
</svg>
