<svg width="70" height="43" viewBox="0 0 70 43" fill="none" xmlns="http://www.w3.org/2000/svg">
<path d="M35.0397 1C32.0723 3.34227 29.6721 6.32439 28.0183 9.72386C26.3644 13.1233 25.4996 16.8524 25.4883 20.6328C25.4995 24.4051 26.3605 28.1263 28.0074 31.5201C29.6544 34.9139 32.0449 37.893 35.0013 40.2359C37.9574 37.8928 40.3476 34.9137 41.9942 31.5199C43.6408 28.1261 44.5016 24.4049 44.5126 20.6328C44.5106 16.8588 43.658 13.1338 42.0179 9.73472C40.3779 6.33569 37.9926 3.35011 35.0397 1Z" stroke="#D6D6D6" stroke-width="2" stroke-linecap="round" stroke-linejoin="round"/>
<path d="M42.7066 11.4185C46.167 8.68483 50.2864 6.9108 54.6502 6.2749C56.0333 9.78704 56.6067 13.5658 56.3278 17.3302C56.0489 21.0945 54.9248 24.7475 53.0391 28.0174C51.1433 31.2784 48.537 34.0703 45.414 36.1857C42.291 38.3011 38.7315 39.6856 35 40.2365M35 40.2365C38.5074 41.6253 42.2827 42.2059 46.0454 41.9351C49.808 41.6643 53.4613 40.5492 56.7338 38.6725C60.0012 36.7839 62.8008 34.1829 64.9245 31.0631C67.0481 27.9433 68.4411 24.3849 68.9999 20.6525C64.9143 19.0247 60.4728 18.4986 56.12 19.1269M35 40.2365C31.2684 39.6856 27.7089 38.3011 24.5859 36.1857C21.4629 34.0703 18.8567 31.2784 16.9608 28.0174C15.0752 24.7475 13.9511 21.0945 13.6721 17.3302C13.3932 13.5658 13.9666 9.78704 15.3497 6.2749C19.7135 6.9108 23.8329 8.68483 27.2933 11.4185M35 40.2365C31.4925 41.6253 27.7172 42.2059 23.9545 41.9351C20.1919 41.6643 16.5386 40.5492 13.2661 38.6725C9.99872 36.7839 7.19909 34.1829 5.07545 31.0631C2.95181 27.9433 1.5588 24.3849 1 20.6525C5.08558 19.0247 9.52707 18.4986 13.8799 19.1269" stroke="#D6D6D6" stroke-width="2" stroke-linecap="round" stroke-linejoin="round"/>
</svg>
