<svg width="26" height="29" viewBox="0 0 26 29" fill="none" xmlns="http://www.w3.org/2000/svg">
<path d="M5.03224 3.54856L0 0C1.67741 2.05904 3.87141 4.86284 3.35473 4.86284C1.57877 4.86284 0.3355 6.98232 0.387536 8.41139C0.499998 11.5 5.84228 22.9999 9.54835 22.9999C11.2783 22.9999 12.8999 21.8999 14.0999 20.0999C14.0999 20.0999 8.64835 18.5999 9.54835 12.2999C10.4483 5.99998 17.0999 5.69998 18.8999 6.89997C18.8999 5.09998 17.9038 5.0044 16.9032 4.86284L19.9999 0L14.4516 3.54856V0L11.8709 3.54856L9.54835 0L8.129 3.54856L5.03224 0V3.54856Z" fill="#753443"/>
<path d="M16.5 7.5C17.3202 7.5 18.1008 7.66396 18.8115 7.96094C20.9786 8.86653 22.5 11.0064 22.5 13.5C22.5 16.8137 19.8137 19.5 16.5 19.5C15.7194 19.5 14.9747 19.3514 14.292 19.0811C12.07 18.2012 10.5 16.0332 10.5 13.5C10.5 10.1863 13.1863 7.5 16.5 7.5Z" stroke="#753443"/>
<path d="M20 20L24 27.5" stroke="#753443" stroke-width="3" stroke-linecap="round" stroke-linejoin="round"/>
</svg>
